<svg width="1656" height="556" viewBox="120 278 1656 556" fill="none" xmlns="http://www.w3.org/2000/svg">
<path d="M663.994 618.375H640.686V516.243H592.12V496.749H712.56V516.243H663.994V618.375Z" fill="#101011"/>
<path d="M747.141 621.342C742.96 621.342 738.75 620.918 734.512 620.07C730.331 619.223 726.517 617.951 723.07 616.256C716.29 612.866 710.922 607.922 706.966 601.424C703.068 594.926 701.118 587.213 701.118 578.285C701.118 575.573 701.457 572.324 702.135 568.538C702.87 564.696 703.717 561.588 704.678 559.215C707.051 553.621 710.328 548.987 714.51 545.314C718.691 541.642 723.466 538.901 728.834 537.093C734.202 535.285 739.852 534.381 745.785 534.381C754.091 534.381 761.635 536.104 768.415 539.551C775.196 542.941 780.564 547.885 784.519 554.384C788.475 560.825 790.452 568.679 790.452 577.946L790.367 582.862L726.461 589.219C727.252 591.987 729.229 594.728 732.394 597.44C735.558 600.096 739.598 601.593 744.514 601.932H749.938C753.498 601.65 756.86 600.633 760.024 598.881C763.189 597.073 765.929 594.474 768.246 591.083L789.689 599.39C783.474 609.052 775.789 615.465 766.635 618.629C763.81 619.534 760.618 620.212 757.058 620.664C753.498 621.116 750.193 621.342 747.141 621.342ZM725.274 569.301L765.025 565.317C764.177 562.605 762.172 559.949 759.007 557.35C755.899 554.694 751.916 553.225 747.057 552.943H744.429C738.835 553.338 734.371 555.259 731.037 558.706C727.76 562.096 725.839 565.628 725.274 569.301Z" fill="#101011"/>
<path d="M902.925 618.375L880.125 618.29V575.658L860.801 603.373H845.714L826.389 575.658V618.29L803.505 618.375V537.432L825.457 537.347L853.257 575.403L881.058 537.347L902.925 537.432V618.375Z" fill="#101011"/>
<path d="M1001.92 618.375H979.037V572.861L939.455 618.375H919.453V537.432H942.337V583.794L981.834 537.432H1001.92V618.375Z" fill="#101011"/>
<path d="M1040.06 659.482H1016.75V537.347H1040.06V541.246C1043.06 539.381 1046.28 537.799 1049.72 536.5C1053.23 535.144 1057.13 534.466 1061.42 534.466C1074.19 534.466 1084.73 538.167 1093.04 545.569C1101.74 553.423 1106.09 564.187 1106.09 577.861C1106.09 587.072 1104.08 594.926 1100.07 601.424C1096.11 607.922 1090.75 612.894 1083.97 616.341C1077.24 619.731 1069.7 621.426 1061.34 621.426C1056.99 621.426 1053.09 620.861 1049.64 619.731C1046.25 618.601 1043.06 617.047 1040.06 615.07V659.482ZM1062.69 601.085C1069.19 600.633 1074.16 598.146 1077.61 593.626C1081.06 589.106 1082.78 583.568 1082.78 577.014C1082.78 570.516 1081.06 565.006 1077.61 560.486C1074.16 555.966 1069.22 553.451 1062.78 552.943H1060.06C1053.4 553.451 1048 555.994 1043.88 560.571C1039.81 565.091 1037.77 570.572 1037.77 577.014C1037.77 583.512 1039.81 589.021 1043.88 593.541C1048 598.062 1053.4 600.576 1060.06 601.085H1062.69Z" fill="#101011"/>
<path d="M1226.7 620.579C1214.38 620.579 1203.33 618.121 1193.56 613.205C1183.78 608.289 1176.04 601.169 1170.33 591.846C1164.68 582.523 1161.86 571.307 1161.86 558.198C1161.86 547.688 1163.58 538.421 1167.03 530.397C1170.48 522.374 1175.22 515.706 1181.27 510.395C1187.31 505.083 1194.24 501.128 1202.03 498.529C1209.83 495.873 1218 494.545 1226.53 494.545C1238.73 494.545 1249.72 497.031 1259.5 502.004C1269.27 506.919 1277.47 514.802 1284.08 525.651L1261.79 534.127C1257.83 527.798 1253.14 523.023 1247.72 519.803C1242.29 516.582 1236.05 514.745 1228.99 514.293H1224.24C1212.43 515.197 1203.02 519.746 1196.02 527.939C1189.01 536.076 1185.51 545.964 1185.51 557.604C1185.51 569.188 1189.01 579.076 1196.02 587.269C1203.02 595.406 1212.46 599.898 1224.32 600.746L1226.7 600.83L1229.16 600.746C1236.22 600.35 1242.43 598.542 1247.8 595.321C1253.23 592.044 1257.89 587.269 1261.79 580.997L1284.16 589.473C1272.01 610.21 1252.86 620.579 1226.7 620.579Z" fill="#101011"/>
<path d="M1341.12 621.342C1336.94 621.342 1332.73 620.918 1328.49 620.07C1324.31 619.223 1320.5 617.951 1317.05 616.256C1310.27 612.866 1304.9 607.922 1300.94 601.424C1297.05 594.926 1295.1 587.213 1295.1 578.285C1295.1 575.573 1295.44 572.324 1296.11 568.538C1296.85 564.696 1297.7 561.588 1298.66 559.215C1301.03 553.621 1304.31 548.987 1308.49 545.314C1312.67 541.642 1317.44 538.901 1322.81 537.093C1328.18 535.285 1333.83 534.381 1339.76 534.381C1348.07 534.381 1355.61 536.104 1362.39 539.551C1369.17 542.941 1374.54 547.885 1378.5 554.384C1382.45 560.825 1384.43 568.679 1384.43 577.946L1384.35 582.862L1320.44 589.219C1321.23 591.987 1323.21 594.728 1326.37 597.44C1329.54 600.096 1333.58 601.593 1338.49 601.932H1343.92C1347.48 601.65 1350.84 600.633 1354 598.881C1357.17 597.073 1359.91 594.474 1362.22 591.083L1383.67 599.39C1377.45 609.052 1369.77 615.465 1360.61 618.629C1357.79 619.534 1354.6 620.212 1351.04 620.664C1347.48 621.116 1344.17 621.342 1341.12 621.342ZM1319.25 569.301L1359 565.317C1358.16 562.605 1356.15 559.949 1352.99 557.35C1349.88 554.694 1345.89 553.225 1341.03 552.943H1338.41C1332.81 553.338 1328.35 555.259 1325.02 558.706C1321.74 562.096 1319.82 565.628 1319.25 569.301Z" fill="#101011"/>
<path d="M1420.79 659.482H1397.48V537.347H1420.79V541.246C1423.79 539.381 1427.01 537.799 1430.45 536.5C1433.96 535.144 1437.86 534.466 1442.15 534.466C1454.92 534.466 1465.46 538.167 1473.76 545.569C1482.47 553.423 1486.82 564.187 1486.82 577.861C1486.82 587.072 1484.81 594.926 1480.8 601.424C1476.84 607.922 1471.48 612.894 1464.7 616.341C1457.97 619.731 1450.43 621.426 1442.07 621.426C1437.71 621.426 1433.82 620.861 1430.37 619.731C1426.98 618.601 1423.79 617.047 1420.79 615.07V659.482ZM1443.42 601.085C1449.92 600.633 1454.89 598.146 1458.34 593.626C1461.79 589.106 1463.51 583.568 1463.51 577.014C1463.51 570.516 1461.79 565.006 1458.34 560.486C1454.89 555.966 1449.95 553.451 1443.51 552.943H1440.79C1434.13 553.451 1428.73 555.994 1424.61 560.571C1420.54 565.091 1418.5 570.572 1418.5 577.014C1418.5 583.512 1420.54 589.021 1424.61 593.541C1428.73 598.062 1434.13 600.576 1440.79 601.085H1443.42Z" fill="#101011"/>
<path d="M1556.49 618.375H1499.53V537.432H1549.79C1553.24 537.432 1556.46 538.082 1559.45 539.381C1562.51 540.681 1565.19 542.461 1567.51 544.721C1569.77 547.038 1571.55 549.722 1572.85 552.773C1574.15 555.768 1574.8 558.989 1574.8 562.435C1574.8 567.182 1573.92 570.968 1572.17 573.793C1574.43 575.375 1576.55 577.974 1578.52 581.591C1580.5 585.15 1581.49 589.077 1581.49 593.372C1581.49 596.819 1580.84 600.068 1579.54 603.119C1578.24 606.114 1576.46 608.769 1574.2 611.086C1571.89 613.346 1569.2 615.126 1566.15 616.426C1563.16 617.725 1559.93 618.375 1556.49 618.375ZM1552.76 599.22C1554.4 599.22 1555.78 598.655 1556.91 597.525C1558.04 596.338 1558.61 594.954 1558.61 593.372C1558.61 591.168 1558.04 589.501 1556.91 588.371C1555.78 587.185 1554.4 586.591 1552.76 586.591H1522.42V599.22H1552.76ZM1545.89 568.368C1547.48 568.368 1548.83 567.803 1549.96 566.673C1551.15 565.487 1551.74 564.102 1551.74 562.52C1551.74 560.882 1551.15 559.497 1549.96 558.367C1548.83 557.18 1547.48 556.587 1545.89 556.587H1522.25V568.368H1545.89Z" fill="#101011"/>
<path d="M1676.42 618.375H1653.53V572.861L1613.95 618.375H1593.95V537.432H1616.83V583.794L1656.33 537.432H1676.42V618.375Z" fill="#101011"/>
<path d="M1735.92 621.342C1727.5 621.342 1719.9 619.647 1713.12 616.256C1706.39 612.866 1701.06 607.95 1697.1 601.509C1693.2 595.067 1691.25 587.326 1691.25 578.285C1691.25 571.052 1692.44 564.667 1694.81 559.13C1697.18 553.592 1700.43 548.987 1704.56 545.314C1708.74 541.642 1713.51 538.929 1718.88 537.178C1724.31 535.37 1729.96 534.466 1735.83 534.466C1744.2 534.466 1751.74 536.161 1758.46 539.551C1765.02 542.828 1770.67 548.253 1775.42 555.824L1753.89 563.792C1749.54 557.124 1743.09 553.79 1734.56 553.79C1728.12 554.299 1723.18 556.813 1719.73 561.334C1716.28 565.854 1714.56 571.363 1714.56 577.861C1714.56 584.416 1716.28 589.953 1719.73 594.474C1723.18 598.994 1728.12 601.48 1734.56 601.932C1743.09 601.932 1749.51 598.655 1753.8 592.1L1775.25 600.322C1772.59 604.673 1769.99 607.978 1767.45 610.238C1759.14 617.641 1748.63 621.342 1735.92 621.342Z" fill="#101011"/>
<path d="M643.984 714.812H637.118L612.638 689.512V714.812H607.414V662.57H612.638V686.452L636.371 662.57H643.238L618.161 687.945L643.984 714.812Z" fill="#101011" fill-opacity="0.5"/>
<path d="M678.699 677.496H683.625V714.812H678.699V707.498C675.266 712.971 670.241 715.708 663.624 715.708C658.3 715.708 653.747 713.817 649.966 710.036C646.235 706.254 644.369 701.627 644.369 696.154C644.369 690.731 646.235 686.104 649.966 682.273C653.747 678.491 658.3 676.6 663.624 676.6C670.241 676.6 675.266 679.337 678.699 684.81V677.496ZM653.548 706.677C656.384 709.513 659.867 710.931 663.997 710.931C668.127 710.931 671.609 709.513 674.445 706.677C677.281 703.791 678.699 700.284 678.699 696.154C678.699 692.024 677.281 688.542 674.445 685.706C671.609 682.82 668.127 681.377 663.997 681.377C659.867 681.377 656.384 682.82 653.548 685.706C650.712 688.542 649.294 692.024 649.294 696.154C649.294 700.284 650.712 703.791 653.548 706.677Z" fill="#101011" fill-opacity="0.5"/>
<path d="M713.309 695.632C717.638 697.274 719.802 700.259 719.802 704.587C719.802 707.722 718.583 710.359 716.146 712.498C713.807 714.638 710.374 715.708 705.846 715.708C698.284 715.708 693.358 712.722 691.069 706.752L695.249 704.289C696.841 708.717 700.373 710.931 705.846 710.931C708.732 710.931 710.946 710.309 712.489 709.065C714.081 707.822 714.877 706.229 714.877 704.289C714.877 702.548 714.23 701.13 712.936 700.035C711.692 698.94 709.951 698.393 707.712 698.393H702.264V693.617H706.219C708.359 693.617 710.026 693.094 711.22 692.049C712.464 690.955 713.086 689.462 713.086 687.571C713.086 685.78 712.364 684.312 710.921 683.168C709.478 681.974 707.538 681.377 705.1 681.377C700.423 681.377 697.313 683.243 695.771 686.974L691.666 684.586C694.154 679.262 698.632 676.6 705.1 676.6C709.031 676.6 712.165 677.645 714.504 679.735C716.842 681.775 718.011 684.288 718.011 687.273C718.011 691.154 716.444 693.94 713.309 695.632Z" fill="#101011" fill-opacity="0.5"/>
<path d="M759.381 677.496H764.306V714.812H759.381V707.498C755.948 712.971 750.922 715.708 744.305 715.708C738.981 715.708 734.429 713.817 730.647 710.036C726.916 706.254 725.05 701.627 725.05 696.154C725.05 690.731 726.916 686.104 730.647 682.273C734.429 678.491 738.981 676.6 744.305 676.6C750.922 676.6 755.948 679.337 759.381 684.81V677.496ZM734.23 706.677C737.066 709.513 740.549 710.931 744.678 710.931C748.808 710.931 752.291 709.513 755.127 706.677C757.963 703.791 759.381 700.284 759.381 696.154C759.381 692.024 757.963 688.542 755.127 685.706C752.291 682.82 748.808 681.377 744.678 681.377C740.549 681.377 737.066 682.82 734.23 685.706C731.394 688.542 729.976 692.024 729.976 696.154C729.976 700.284 731.394 703.791 734.23 706.677Z" fill="#101011" fill-opacity="0.5"/>
<path d="M806.081 714.812H800.185L788.543 699.438L776.9 714.812H771.004L785.632 695.482L771.974 677.496H777.87L788.543 691.602L799.215 677.496H805.111L791.528 695.482L806.081 714.812Z" fill="#101011" fill-opacity="0.5"/>
<path d="M827.546 715.708C821.924 715.708 817.247 713.842 813.515 710.11C809.784 706.329 807.918 701.677 807.918 696.154C807.918 690.631 809.784 686.004 813.515 682.273C817.247 678.491 821.924 676.6 827.546 676.6C831.278 676.6 834.586 677.496 837.472 679.287C840.408 681.029 842.547 683.392 843.89 686.377L839.86 688.691C838.865 686.452 837.273 684.686 835.084 683.392C832.895 682.049 830.382 681.377 827.546 681.377C823.416 681.377 819.934 682.82 817.098 685.706C814.262 688.542 812.844 692.024 812.844 696.154C812.844 700.284 814.262 703.791 817.098 706.677C819.934 709.513 823.416 710.931 827.546 710.931C830.382 710.931 832.87 710.284 835.009 708.991C837.198 707.647 838.915 705.856 840.159 703.617L844.264 706.005C842.721 708.991 840.457 711.354 837.472 713.096C834.487 714.837 831.178 715.708 827.546 715.708Z" fill="#101011" fill-opacity="0.5"/>
<path d="M877.474 677.496V682.273H864.264V714.812H859.339V682.273H846.129V677.496H877.474Z" fill="#101011" fill-opacity="0.5"/>
<path d="M914.111 677.496H919.037V714.812H914.111V707.498C910.678 712.971 905.653 715.708 899.035 715.708C893.712 715.708 889.159 713.817 885.378 710.036C881.646 706.254 879.78 701.627 879.78 696.154C879.78 690.731 881.646 686.104 885.378 682.273C889.159 678.491 893.712 676.6 899.035 676.6C905.653 676.6 910.678 679.337 914.111 684.81V677.496ZM888.96 706.677C891.796 709.513 895.279 710.931 899.408 710.931C903.538 710.931 907.021 709.513 909.857 706.677C912.693 703.791 914.111 700.284 914.111 696.154C914.111 692.024 912.693 688.542 909.857 685.706C907.021 682.82 903.538 681.377 899.408 681.377C895.279 681.377 891.796 682.82 888.96 685.706C886.124 688.542 884.706 692.024 884.706 696.154C884.706 700.284 886.124 703.791 888.96 706.677Z" fill="#101011" fill-opacity="0.5"/>
<path d="M955.886 677.496H960.811V714.812H955.886V698.542H934.392V714.812H929.466V677.496H934.392V693.766H955.886V677.496Z" fill="#101011" fill-opacity="0.5"/>
<path d="M391.062 411.856H960.015L890.821 289.103H460.255L391.062 411.856Z" fill="#FF7A27"/>
<path d="M512.103 754.727L512.103 482.029L391.062 411.856L391.062 824.9L512.103 754.727Z" fill="#FF7A27"/>
<path d="M321.87 534.61H200.783L131.59 411.856H391.062L321.87 534.61Z" fill="#FF7A27"/>
</svg>
